<?xml version="1.0" encoding="utf-8"?>
<!-- Generator: Adobe Illustrator 22.1.0, SVG Export Plug-In . SVG Version: 6.00 Build 0)  -->
<svg version="1.1" id="Layer_1" xmlns="http://www.w3.org/2000/svg" xmlns:xlink="http://www.w3.org/1999/xlink" x="0px" y="0px"
	 viewBox="0 0 32 32" style="enable-background:new 0 0 32 32;" xml:space="preserve">
<style type="text/css">
	.st0{fill:#FB4F14;}
</style>
<title>Quest-Icon</title>
<polygon class="st0" points="13.5,18 11.5,16 10,17.5 13.5,21 22,12.5 20.5,11 "/>
<path class="st0" d="M16,6C10.5,6,6,10.5,6,16s4.5,10,10,10s10-4.5,10-10S21.5,6,16,6z M16,24c-4.4,0-8-3.6-8-8s3.6-8,8-8s8,3.6,8,8
	S20.4,24,16,24z"/>
<path class="st0" d="M32,16c0-0.9-0.6-1.6-1.4-1.9c0.7-0.5,1.1-1.4,0.9-2.2c-0.2-0.9-1-1.5-1.9-1.5c0.6-0.7,0.7-1.6,0.3-2.4
	c-0.5-0.8-1.3-1.1-2.2-0.9c0.4-0.8,0.3-1.7-0.3-2.4C26.8,4.1,25.8,4,25,4.4c0.2-0.8-0.2-1.7-0.9-2.2c-0.8-0.4-1.8-0.3-2.4,0.3
	c0-0.9-0.6-1.7-1.5-1.9c-0.9-0.3-1.8,0.1-2.2,0.9C17.7,0.6,16.9,0,16,0c-0.9,0-1.6,0.6-1.9,1.4c-0.5-0.7-1.4-1.1-2.2-0.9
	c-0.9,0.2-1.5,1-1.5,1.9C9.7,1.8,8.8,1.7,8,2.1C7.2,2.6,6.9,3.4,7.1,4.3C6.3,3.9,5.3,4,4.7,4.7C4,5.3,3.9,6.3,4.3,7.1
	C3.4,6.9,2.6,7.2,2.1,8c-0.4,0.8-0.3,1.8,0.3,2.4c-0.9,0-1.7,0.6-1.9,1.5c-0.3,0.9,0.1,1.8,0.9,2.2c-1,0.3-1.6,1.5-1.3,2.5
	c0.2,0.6,0.7,1.1,1.3,1.3c-0.7,0.5-1.1,1.4-0.9,2.2c0.2,0.9,1,1.5,1.9,1.5c-0.6,0.7-0.7,1.6-0.3,2.4c0.5,0.8,1.3,1.1,2.2,0.9
	c-0.4,0.8-0.3,1.7,0.3,2.4C5.2,27.9,6.2,28,7,27.6c-0.2,0.8,0.2,1.7,0.9,2.2c0.8,0.4,1.8,0.3,2.4-0.3c0,0.9,0.6,1.7,1.5,1.9
	c0.9,0.3,1.8-0.1,2.2-0.9c0.3,1,1.5,1.6,2.5,1.3c0.6-0.2,1.1-0.7,1.3-1.3c0.5,0.7,1.4,1.1,2.2,0.9c0.9-0.2,1.5-1,1.5-1.9
	c0.7,0.6,1.6,0.7,2.4,0.3c0.8-0.5,1.1-1.3,0.9-2.2c0.8,0.4,1.7,0.3,2.4-0.3c0.6-0.6,0.7-1.6,0.3-2.4c0.8,0.2,1.7-0.2,2.2-0.9
	c0.4-0.8,0.3-1.8-0.3-2.4c0.9,0,1.7-0.6,1.9-1.5c0.3-0.9-0.1-1.8-0.9-2.2C31.3,17.7,32,16.9,32,16z M16,28C9.4,28,4,22.6,4,16
	S9.4,4,16,4s12,5.4,12,12S22.6,28,16,28z"/>
</svg>
