<?xml version="1.0" encoding="utf-8"?>
<!-- Generator: Adobe Illustrator 22.1.0, SVG Export Plug-In . SVG Version: 6.00 Build 0)  -->
<svg version="1.1" id="Layer_1" xmlns="http://www.w3.org/2000/svg" xmlns:xlink="http://www.w3.org/1999/xlink" x="0px" y="0px"
	 viewBox="0 0 32 32" style="enable-background:new 0 0 32 32;" xml:space="preserve">
<style type="text/css">
	.st0{fill:#FB4F14;}
</style>
<title>Quest-Icon</title>
<path class="st0" d="M30,4h-8V2c0-1.1-0.9-2-2-2H2C0.9,0,0,0.9,0,2v16c0,1.1,0.9,2,2,2h6v8l4-4h4l8,8v-8h6c1.1,0,2-0.9,2-2V6
	C32,4.9,31.1,4,30,4z M2,18V2h18v16h-5l-5,5v-5H2z M30,22h-8v5l-5-5h-3l2-2h4c1.1,0,2-0.9,2-2V6h8V22z"/>
</svg>
