<?xml version="1.0" encoding="utf-8"?>
<!-- Generator: Adobe Illustrator 22.1.0, SVG Export Plug-In . SVG Version: 6.00 Build 0)  -->
<svg version="1.1" id="Layer_1" xmlns="http://www.w3.org/2000/svg" xmlns:xlink="http://www.w3.org/1999/xlink" x="0px" y="0px"
	 viewBox="0 0 32 32" style="enable-background:new 0 0 32 32;" xml:space="preserve">
<style type="text/css">
	.st0{fill:#FB4F14;}
</style>
<title>Quest-Icon</title>
<path class="st0" d="M16,2C8.3,2,2,8.3,2,16s6.3,14,14,14s14-6.3,14-14S23.7,2,16,2z M16,28C9.4,28,4,22.6,4,16S9.4,4,16,4
	s12,5.4,12,12S22.6,28,16,28z"/>
<path class="st0" d="M16,14c-1.1,0-2,0.9-2,2s0.9,2,2,2s2-0.9,2-2c0-0.2,0-0.4-0.1-0.5l6.2-6.2l-1.4-1.4l-6.2,6.2
	C16.3,14,16.2,14,16,14z"/>
<path class="st0" d="M24.9,11.4l-1.5,1.5c1.7,4.1-0.2,8.8-4.2,10.5c-4.1,1.7-8.8-0.2-10.5-4.2s0.2-8.8,4.2-10.5c2-0.8,4.2-0.9,6.2,0
	l1.5-1.5C15.7,4.6,9.7,6.5,7.1,11.4s-0.6,10.9,4.3,13.5s10.9,0.6,13.5-4.3C26.4,17.7,26.4,14.3,24.9,11.4L24.9,11.4z"/>
</svg>
