<?xml version="1.0" encoding="utf-8"?>
<!-- Generator: Adobe Illustrator 22.1.0, SVG Export Plug-In . SVG Version: 6.00 Build 0)  -->
<svg version="1.1" id="Layer_1" xmlns="http://www.w3.org/2000/svg" xmlns:xlink="http://www.w3.org/1999/xlink" x="0px" y="0px"
	 viewBox="0 0 32 32" style="enable-background:new 0 0 32 32;" xml:space="preserve">
<style type="text/css">
	.st0{fill:#FB4F14;}
</style>
<title>Quest-Icon</title>
<path class="st0" d="M16,1C7.7,1,1,7.7,1,16s6.7,15,15,15s15-6.7,15-15S24.3,1,16,1z M29,15h-6c-0.1-1.7-0.4-3.3-0.9-4.9
	c1.5-0.5,2.9-1.1,4.1-2C27.8,10.1,28.8,12.5,29,15z M16,28.6c-1.4-1.6-2.6-3.4-3.4-5.3c2.3-0.4,4.6-0.4,6.9,0
	C18.6,25.2,17.4,27,16,28.6z M21.4,23.8c1.2,0.4,2.4,0.9,3.5,1.6c-1.8,1.7-4,2.8-6.4,3.3C19.7,27.2,20.7,25.6,21.4,23.8L21.4,23.8z
	 M13.5,28.8c-2.4-0.5-4.6-1.6-6.4-3.3c1.1-0.7,2.3-1.3,3.5-1.6C11.3,25.6,12.3,27.2,13.5,28.8z M16,21c-1.4,0-2.8,0.1-4.1,0.4
	C11.4,20,11.1,18.5,11,17h10c-0.1,1.5-0.3,3-0.8,4.4C18.8,21.1,17.4,21,16,21z M11,15c0.1-1.5,0.3-3,0.8-4.4
	c1.4,0.3,2.8,0.4,4.2,0.4c1.4,0,2.8-0.1,4.2-0.4c0.5,1.4,0.7,2.9,0.8,4.4H11z M16,3.4c1.4,1.6,2.6,3.3,3.4,5.3C18.3,8.9,17.2,9,16,9
	c-1.1,0-2.3-0.1-3.4-0.3C13.4,6.8,14.6,5,16,3.4z M10.6,8.2C9.3,7.8,8.2,7.3,7.1,6.6c1.8-1.7,4-2.8,6.4-3.3
	C12.3,4.8,11.3,6.4,10.6,8.2z M18.5,3.2c2.4,0.5,4.6,1.6,6.4,3.3c-1.1,0.7-2.2,1.3-3.5,1.6C20.7,6.4,19.7,4.7,18.5,3.2L18.5,3.2z
	 M5.7,8.1c1.3,0.9,2.7,1.5,4.2,2C9.4,11.7,9.1,13.3,9,15H3C3.2,12.5,4.2,10.1,5.7,8.1z M3,17H9c0.1,1.7,0.4,3.3,0.9,4.9
	c-1.5,0.5-2.9,1.1-4.2,2C4.1,21.9,3.2,19.5,3,17z M26.3,24c-1.3-0.9-2.7-1.5-4.1-2c0.5-1.6,0.8-3.3,0.9-5h6
	C28.8,19.6,27.8,22,26.3,24z"/>
</svg>
