<?xml version="1.0" encoding="utf-8"?>
<!-- Generator: Adobe Illustrator 23.0.2, SVG Export Plug-In . SVG Version: 6.00 Build 0)  -->
<svg version="1.1" id="Layer_1" xmlns="http://www.w3.org/2000/svg" xmlns:xlink="http://www.w3.org/1999/xlink" x="0px" y="0px"
	 viewBox="0 0 32 32" style="enable-background:new 0 0 32 32;" xml:space="preserve">
<style type="text/css">
	.st0{fill:#333333;}
</style>
<title>Quest-Icon</title>
<path class="st0" d="M29.8,26.9L29.8,26.9l-9.5-9.5l-0.2-0.2c3.4-5,2.1-11.9-2.9-15.3S5.4-0.2,1.9,4.8s-2.1,11.9,2.9,15.3
	c1.8,1.2,4,1.9,6.2,1.9s4.4-0.6,6.2-1.9l0.2,0.2l9.5,9.5l0,0c0.7,0.8,2,0.8,2.7,0.1c0,0,0,0,0.1-0.1C30.5,29,30.5,27.7,29.8,26.9z
	 M11,20c-5,0-9-4-9-9s4-9,9-9s9,4,9,9S16,20,11,20z"/>
</svg>
