<?xml version="1.0" encoding="utf-8"?>
<!-- Generator: Adobe Illustrator 22.1.0, SVG Export Plug-In . SVG Version: 6.00 Build 0)  -->
<svg version="1.1" id="Layer_1" xmlns="http://www.w3.org/2000/svg" xmlns:xlink="http://www.w3.org/1999/xlink" x="0px" y="0px"
	 viewBox="0 0 32 32" style="enable-background:new 0 0 32 32;" xml:space="preserve">
<style type="text/css">
	.st0{fill:#FB4F14;}
	.st1{fill:none;stroke:#FB4F14;stroke-width:1.8;stroke-miterlimit:10;}
</style>
<title>Quest-Icon</title>
<path class="st0" d="M10.4,20.5c0-0.1,0-0.2,0.1-0.3l1.2-2.1h9.5c0.8,0,1.6-0.5,2-1.2l2.7-5l-1.8-1l-2.8,5h-9L9.4,10H16V7.9H8.4
	L6.8,4.7H2v2.1h3.5l4.6,9.7l-1.8,3.2C8.1,20,8,20.4,8,20.8c0,1.3,1,2.3,2.3,2.3H26V21H10.9C10.6,21,10.4,20.8,10.4,20.5z"/>
<g>
	<path class="st1" d="M23.1,29.1c-1.1,0-2-0.9-2-2s0.9-2,2-2s2,0.9,2,2S24.2,29.1,23.1,29.1z"/>
	<path class="st1" d="M11,29.1c-1.1,0-2-0.9-2-2s0.9-2,2-2s2,0.9,2,2S12.1,29.1,11,29.1z"/>
</g>
<polygon class="st0" points="24.7,3.5 21,7.2 18.5,4.8 17.3,6.1 21,10 26.1,4.9 "/>
</svg>
