<svg id="Layer_1" data-name="Layer 1" xmlns="http://www.w3.org/2000/svg" viewBox="0 0 32 32"><defs><style>.cls-1{fill:#333;}</style></defs><title>Quest-Icon</title><path class="cls-1" d="M25.2,18.6,21.5,17a5.78,5.78,0,0,0-1.4-.5A5.33,5.33,0,0,0,22,12.4V9.6A5.81,5.81,0,0,0,16,4a5.81,5.81,0,0,0-6,5.6v2.8a5.33,5.33,0,0,0,1.9,4.1,5.78,5.78,0,0,0-1.4.5L6.7,18.7A4.82,4.82,0,0,0,4,22.9V26a2,2,0,0,0,2,2H26a2,2,0,0,0,2-2V22.9A5,5,0,0,0,25.2,18.6ZM12,9.6A3.81,3.81,0,0,1,16,6a3.81,3.81,0,0,1,4,3.6v2.8A3.81,3.81,0,0,1,16,16a3.81,3.81,0,0,1-4-3.6ZM25.9,26H6V22.9a3.21,3.21,0,0,1,1.3-2.3,15.52,15.52,0,0,1,17.2,0,3,3,0,0,1,1.4,2.3Z"/></svg>